<?xml version="1.0" encoding="UTF-8" standalone="no"?>
<!DOCTYPE svg PUBLIC "-//W3C//DTD SVG 1.1//EN"
 "http://www.w3.org/Graphics/SVG/1.1/DTD/svg11.dtd">
<!-- Generated by graphviz version 12.2.1 (20241206.2353)
 -->
<!-- Title: DepGraph Pages: 1 -->
<svg width="2052pt" height="441pt"
 viewBox="0.00 0.00 2052.30 440.80" xmlns="http://www.w3.org/2000/svg" xmlns:xlink="http://www.w3.org/1999/xlink">
<g id="graph0" class="graph" transform="scale(1 1) rotate(0) translate(14.4 426.4)">
<title>DepGraph</title>
<polygon fill="white" stroke="none" points="-14,14 -14,-426 2038,-426 2038,14 -14,14"/>
<!-- github.com/chzyer/readline -->
<g id="node1" class="node">
<title>github.com/chzyer/readline</title>
<polygon fill="#d4d4d4" stroke="#a6a6a6" points="231,-36 12,-36 12,-40 0,-40 0,0 231,0 231,-36"/>
<polyline fill="none" stroke="#a6a6a6" points="0,-36 12,-36"/>
<text text-anchor="middle" x="115" y="-13" font-family="Courier New" font-size="14.00">github.com/chzyer/readline</text>
</g>
<!-- github.com/codemityio/auxilium -->
<g id="node2" class="node">
<title>github.com/codemityio/auxilium</title>
<polygon fill="#fcfcfc" stroke="#949494" points="517,-412 266,-412 266,-416 254,-416 254,-376 517,-376 517,-412"/>
<polyline fill="none" stroke="#949494" points="254,-412 266,-412"/>
<text text-anchor="middle" x="385" y="-389" font-family="Courier New" font-size="14.00">github.com/codemityio/auxilium</text>
</g>
<!-- github.com/codemityio/auxilium/cmd/select -->
<g id="node3" class="node">
<title>github.com/codemityio/auxilium/cmd/select</title>
<polygon fill="#fcfcfc" stroke="#949494" points="398,-318 56,-318 56,-322 44,-322 44,-282 398,-282 398,-318"/>
<polyline fill="none" stroke="#949494" points="44,-318 56,-318"/>
<text text-anchor="middle" x="221" y="-295" font-family="Courier New" font-size="14.00">github.com/codemityio/auxilium/cmd/select</text>
</g>
<!-- github.com/codemityio/auxilium&#45;&gt;github.com/codemityio/auxilium/cmd/select -->
<g id="edge1" class="edge">
<title>github.com/codemityio/auxilium&#45;&gt;github.com/codemityio/auxilium/cmd/select</title>
<path fill="none" stroke="#a8a8a8" d="M326,-376C326,-376 326,-326 326,-326"/>
<polygon fill="#a8a8a8" stroke="#a8a8a8" points="328,-326 326,-320 324,-326 328,-326"/>
</g>
<!-- github.com/codemityio/auxilium/cmd/validate -->
<g id="node4" class="node">
<title>github.com/codemityio/auxilium/cmd/validate</title>
<polygon fill="#fcfcfc" stroke="#949494" points="1409,-318 1050,-318 1050,-322 1038,-322 1038,-282 1409,-282 1409,-318"/>
<polyline fill="none" stroke="#949494" points="1038,-318 1050,-318"/>
<text text-anchor="middle" x="1223" y="-295" font-family="Courier New" font-size="14.00">github.com/codemityio/auxilium/cmd/validate</text>
</g>
<!-- github.com/codemityio/auxilium&#45;&gt;github.com/codemityio/auxilium/cmd/validate -->
<g id="edge2" class="edge">
<title>github.com/codemityio/auxilium&#45;&gt;github.com/codemityio/auxilium/cmd/validate</title>
<path fill="none" stroke="#a8a8a8" d="M500,-376C500,-350 500,-306 500,-306 500,-306 1030,-306 1030,-306"/>
<polygon fill="#a8a8a8" stroke="#a8a8a8" points="1030,-308 1036,-306 1030,-304 1030,-308"/>
</g>
<!-- github.com/urfave/cli/v2 -->
<g id="node5" class="node">
<title>github.com/urfave/cli/v2</title>
<polygon fill="#d4d4d4" stroke="#a6a6a6" points="681,-224 479,-224 479,-228 467,-228 467,-188 681,-188 681,-224"/>
<polyline fill="none" stroke="#a6a6a6" points="467,-224 479,-224"/>
<text text-anchor="middle" x="574" y="-201" font-family="Courier New" font-size="14.00">github.com/urfave/cli/v2</text>
</g>
<!-- github.com/codemityio/auxilium&#45;&gt;github.com/urfave/cli/v2 -->
<g id="edge3" class="edge">
<title>github.com/codemityio/auxilium&#45;&gt;github.com/urfave/cli/v2</title>
<path fill="none" stroke="#a8a8a8" d="M484,-376C484,-376 484,-232 484,-232"/>
<polygon fill="#a8a8a8" stroke="#a8a8a8" points="486,-232 484,-226 482,-232 486,-232"/>
</g>
<!-- github.com/codemityio/auxilium/cmd/select&#45;&gt;github.com/urfave/cli/v2 -->
<g id="edge5" class="edge">
<title>github.com/codemityio/auxilium/cmd/select&#45;&gt;github.com/urfave/cli/v2</title>
<path fill="none" stroke="#a8a8a8" d="M379,-282C379,-255 379,-206 379,-206 379,-206 460,-206 460,-206"/>
<polygon fill="#a8a8a8" stroke="#a8a8a8" points="460,-208 466,-206 460,-204 460,-208"/>
</g>
<!-- github.com/manifoldco/promptui -->
<g id="node6" class="node">
<title>github.com/manifoldco/promptui</title>
<polygon fill="#d4d4d4" stroke="#a6a6a6" points="360,-224 109,-224 109,-228 97,-228 97,-188 360,-188 360,-224"/>
<polyline fill="none" stroke="#a6a6a6" points="97,-224 109,-224"/>
<text text-anchor="middle" x="228" y="-201" font-family="Courier New" font-size="14.00">github.com/manifoldco/promptui</text>
</g>
<!-- github.com/codemityio/auxilium/cmd/select&#45;&gt;github.com/manifoldco/promptui -->
<g id="edge4" class="edge">
<title>github.com/codemityio/auxilium/cmd/select&#45;&gt;github.com/manifoldco/promptui</title>
<path fill="none" stroke="#a8a8a8" d="M228,-282C228,-282 228,-232 228,-232"/>
<polygon fill="#a8a8a8" stroke="#a8a8a8" points="230,-232 228,-226 226,-232 230,-232"/>
</g>
<!-- github.com/codemityio/auxilium/cmd/validate&#45;&gt;github.com/urfave/cli/v2 -->
<g id="edge7" class="edge">
<title>github.com/codemityio/auxilium/cmd/validate&#45;&gt;github.com/urfave/cli/v2</title>
<path fill="none" stroke="#a8a8a8" d="M1038,-294C854,-294 599,-294 599,-294 599,-294 599,-232 599,-232"/>
<polygon fill="#a8a8a8" stroke="#a8a8a8" points="601,-232 599,-226 597,-232 601,-232"/>
</g>
<!-- github.com/ghodss/yaml -->
<g id="node7" class="node">
<title>github.com/ghodss/yaml</title>
<polygon fill="#d4d4d4" stroke="#a6a6a6" points="983,-224 798,-224 798,-228 786,-228 786,-188 983,-188 983,-224"/>
<polyline fill="none" stroke="#a6a6a6" points="786,-224 798,-224"/>
<text text-anchor="middle" x="884" y="-201" font-family="Courier New" font-size="14.00">github.com/ghodss/yaml</text>
</g>
<!-- github.com/codemityio/auxilium/cmd/validate&#45;&gt;github.com/ghodss/yaml -->
<g id="edge6" class="edge">
<title>github.com/codemityio/auxilium/cmd/validate&#45;&gt;github.com/ghodss/yaml</title>
<path fill="none" stroke="#a8a8a8" d="M1106,-282C1106,-257 1106,-215 1106,-215 1106,-215 991,-215 991,-215"/>
<polygon fill="#a8a8a8" stroke="#a8a8a8" points="991,-213 985,-215 991,-217 991,-213"/>
</g>
<!-- github.com/xeipuuv/gojsonschema -->
<g id="node8" class="node">
<title>github.com/xeipuuv/gojsonschema</title>
<polygon fill="#d4d4d4" stroke="#a6a6a6" points="1683,-224 1423,-224 1423,-228 1411,-228 1411,-188 1683,-188 1683,-224"/>
<polyline fill="none" stroke="#a6a6a6" points="1411,-224 1423,-224"/>
<text text-anchor="middle" x="1547" y="-201" font-family="Courier New" font-size="14.00">github.com/xeipuuv/gojsonschema</text>
</g>
<!-- github.com/codemityio/auxilium/cmd/validate&#45;&gt;github.com/xeipuuv/gojsonschema -->
<g id="edge8" class="edge">
<title>github.com/codemityio/auxilium/cmd/validate&#45;&gt;github.com/xeipuuv/gojsonschema</title>
<path fill="none" stroke="#a8a8a8" d="M1342,-282C1342,-252 1342,-197 1342,-197 1342,-197 1403,-197 1403,-197"/>
<polygon fill="#a8a8a8" stroke="#a8a8a8" points="1403,-199 1409,-197 1403,-195 1403,-199"/>
</g>
<!-- github.com/cpuguy83/go&#45;md2man/v2/md2man -->
<g id="node9" class="node">
<title>github.com/cpuguy83/go&#45;md2man/v2/md2man</title>
<polygon fill="#d4d4d4" stroke="#a6a6a6" points="1174,-130 848,-130 848,-134 836,-134 836,-94 1174,-94 1174,-130"/>
<polyline fill="none" stroke="#a6a6a6" points="836,-130 848,-130"/>
<text text-anchor="middle" x="1005" y="-107" font-family="Courier New" font-size="14.00">github.com/cpuguy83/go&#45;md2man/v2/md2man</text>
</g>
<!-- github.com/urfave/cli/v2&#45;&gt;github.com/cpuguy83/go&#45;md2man/v2/md2man -->
<g id="edge14" class="edge">
<title>github.com/urfave/cli/v2&#45;&gt;github.com/cpuguy83/go&#45;md2man/v2/md2man</title>
<path fill="none" stroke="#a8a8a8" d="M632,-188C632,-161 632,-112 632,-112 632,-112 828,-112 828,-112"/>
<polygon fill="#a8a8a8" stroke="#a8a8a8" points="828,-114 834,-112 828,-110 828,-114"/>
</g>
<!-- github.com/xrash/smetrics -->
<g id="node14" class="node">
<title>github.com/xrash/smetrics</title>
<polygon fill="#d4d4d4" stroke="#a6a6a6" points="1432,-36 1222,-36 1222,-40 1210,-40 1210,0 1432,0 1432,-36"/>
<polyline fill="none" stroke="#a6a6a6" points="1210,-36 1222,-36"/>
<text text-anchor="middle" x="1321" y="-13" font-family="Courier New" font-size="14.00">github.com/xrash/smetrics</text>
</g>
<!-- github.com/urfave/cli/v2&#45;&gt;github.com/xrash/smetrics -->
<g id="edge15" class="edge">
<title>github.com/urfave/cli/v2&#45;&gt;github.com/xrash/smetrics</title>
<path fill="none" stroke="#a8a8a8" d="M582,-188C582,-175 582,-159 582,-159 582,-159 1276,-159 1276,-159 1276,-159 1276,-44 1276,-44"/>
<polygon fill="#a8a8a8" stroke="#a8a8a8" points="1278,-44 1276,-38 1274,-44 1278,-44"/>
</g>
<!-- github.com/manifoldco/promptui&#45;&gt;github.com/chzyer/readline -->
<g id="edge11" class="edge">
<title>github.com/manifoldco/promptui&#45;&gt;github.com/chzyer/readline</title>
<path fill="none" stroke="#a8a8a8" d="M140,-188C140,-188 140,-44 140,-44"/>
<polygon fill="#a8a8a8" stroke="#a8a8a8" points="142,-44 140,-38 138,-44 142,-44"/>
</g>
<!-- github.com/manifoldco/promptui/list -->
<g id="node12" class="node">
<title>github.com/manifoldco/promptui/list</title>
<polygon fill="#d4d4d4" stroke="#a6a6a6" points="533,-130 240,-130 240,-134 228,-134 228,-94 533,-94 533,-130"/>
<polyline fill="none" stroke="#a6a6a6" points="228,-130 240,-130"/>
<text text-anchor="middle" x="380" y="-107" font-family="Courier New" font-size="14.00">github.com/manifoldco/promptui/list</text>
</g>
<!-- github.com/manifoldco/promptui&#45;&gt;github.com/manifoldco/promptui/list -->
<g id="edge12" class="edge">
<title>github.com/manifoldco/promptui&#45;&gt;github.com/manifoldco/promptui/list</title>
<path fill="none" stroke="#a8a8a8" d="M294,-188C294,-188 294,-138 294,-138"/>
<polygon fill="#a8a8a8" stroke="#a8a8a8" points="296,-138 294,-132 292,-138 296,-138"/>
</g>
<!-- github.com/manifoldco/promptui/screenbuf -->
<g id="node13" class="node">
<title>github.com/manifoldco/promptui/screenbuf</title>
<polygon fill="#d4d4d4" stroke="#a6a6a6" points="697,-36 363,-36 363,-40 351,-40 351,0 697,0 697,-36"/>
<polyline fill="none" stroke="#a6a6a6" points="351,-36 363,-36"/>
<text text-anchor="middle" x="524" y="-13" font-family="Courier New" font-size="14.00">github.com/manifoldco/promptui/screenbuf</text>
</g>
<!-- github.com/manifoldco/promptui&#45;&gt;github.com/manifoldco/promptui/screenbuf -->
<g id="edge13" class="edge">
<title>github.com/manifoldco/promptui&#45;&gt;github.com/manifoldco/promptui/screenbuf</title>
<path fill="none" stroke="#a8a8a8" d="M184,-188C184,-149 184,-65 184,-65 184,-65 442,-65 442,-65 442,-65 442,-44 442,-44"/>
<polygon fill="#a8a8a8" stroke="#a8a8a8" points="444,-44 442,-38 440,-44 444,-44"/>
</g>
<!-- gopkg.in/yaml.v2 -->
<g id="node11" class="node">
<title>gopkg.in/yaml.v2</title>
<polygon fill="#d4d4d4" stroke="#a6a6a6" points="1626,-130 1490,-130 1490,-134 1478,-134 1478,-94 1626,-94 1626,-130"/>
<polyline fill="none" stroke="#a6a6a6" points="1478,-130 1490,-130"/>
<text text-anchor="middle" x="1552" y="-107" font-family="Courier New" font-size="14.00">gopkg.in/yaml.v2</text>
</g>
<!-- github.com/ghodss/yaml&#45;&gt;gopkg.in/yaml.v2 -->
<g id="edge10" class="edge">
<title>github.com/ghodss/yaml&#45;&gt;gopkg.in/yaml.v2</title>
<path fill="none" stroke="#a8a8a8" d="M983,-206C1073,-206 1192,-206 1192,-206 1192,-206 1192,-112 1192,-112 1192,-112 1471,-112 1471,-112"/>
<polygon fill="#a8a8a8" stroke="#a8a8a8" points="1471,-114 1477,-112 1471,-110 1471,-114"/>
</g>
<!-- github.com/xeipuuv/gojsonreference -->
<g id="node16" class="node">
<title>github.com/xeipuuv/gojsonreference</title>
<polygon fill="#d4d4d4" stroke="#a6a6a6" points="2024,-130 1739,-130 1739,-134 1727,-134 1727,-94 2024,-94 2024,-130"/>
<polyline fill="none" stroke="#a6a6a6" points="1727,-130 1739,-130"/>
<text text-anchor="middle" x="1875" y="-107" font-family="Courier New" font-size="14.00">github.com/xeipuuv/gojsonreference</text>
</g>
<!-- github.com/xeipuuv/gojsonschema&#45;&gt;github.com/xeipuuv/gojsonreference -->
<g id="edge17" class="edge">
<title>github.com/xeipuuv/gojsonschema&#45;&gt;github.com/xeipuuv/gojsonreference</title>
<path fill="none" stroke="#a8a8a8" d="M1659,-188C1659,-161 1659,-112 1659,-112 1659,-112 1719,-112 1719,-112"/>
<polygon fill="#a8a8a8" stroke="#a8a8a8" points="1719,-114 1725,-112 1719,-110 1719,-114"/>
</g>
<!-- github.com/russross/blackfriday/v2 -->
<g id="node10" class="node">
<title>github.com/russross/blackfriday/v2</title>
<polygon fill="#d4d4d4" stroke="#a6a6a6" points="1105,-36 820,-36 820,-40 808,-40 808,0 1105,0 1105,-36"/>
<polyline fill="none" stroke="#a6a6a6" points="808,-36 820,-36"/>
<text text-anchor="middle" x="956" y="-13" font-family="Courier New" font-size="14.00">github.com/russross/blackfriday/v2</text>
</g>
<!-- github.com/cpuguy83/go&#45;md2man/v2/md2man&#45;&gt;github.com/russross/blackfriday/v2 -->
<g id="edge9" class="edge">
<title>github.com/cpuguy83/go&#45;md2man/v2/md2man&#45;&gt;github.com/russross/blackfriday/v2</title>
<path fill="none" stroke="#a8a8a8" d="M970,-94C970,-94 970,-44 970,-44"/>
<polygon fill="#a8a8a8" stroke="#a8a8a8" points="973,-44 970,-38 968,-44 973,-44"/>
</g>
<!-- github.com/xeipuuv/gojsonpointer -->
<g id="node15" class="node">
<title>github.com/xeipuuv/gojsonpointer</title>
<polygon fill="#d4d4d4" stroke="#a6a6a6" points="1914,-36 1646,-36 1646,-40 1634,-40 1634,0 1914,0 1914,-36"/>
<polyline fill="none" stroke="#a6a6a6" points="1634,-36 1646,-36"/>
<text text-anchor="middle" x="1774" y="-13" font-family="Courier New" font-size="14.00">github.com/xeipuuv/gojsonpointer</text>
</g>
<!-- github.com/xeipuuv/gojsonreference&#45;&gt;github.com/xeipuuv/gojsonpointer -->
<g id="edge16" class="edge">
<title>github.com/xeipuuv/gojsonreference&#45;&gt;github.com/xeipuuv/gojsonpointer</title>
<path fill="none" stroke="#a8a8a8" d="M1821,-94C1821,-94 1821,-44 1821,-44"/>
<polygon fill="#a8a8a8" stroke="#a8a8a8" points="1823,-44 1821,-38 1819,-44 1823,-44"/>
</g>
</g>
</svg>
