<?xml version="1.0" encoding="UTF-8" standalone="no"?>
<!DOCTYPE svg PUBLIC "-//W3C//DTD SVG 1.1//EN"
 "http://www.w3.org/Graphics/SVG/1.1/DTD/svg11.dtd">
<!-- Generated by graphviz version 12.2.1 (20241206.2353)
 -->
<!-- Title: DepGraph Pages: 1 -->
<svg width="2052pt" height="441pt"
 viewBox="0.00 0.00 2052.30 440.80" xmlns="http://www.w3.org/2000/svg" xmlns:xlink="http://www.w3.org/1999/xlink">
<g id="graph0" class="graph" transform="scale(1 1) rotate(0) translate(14.4 426.4)">
<title>DepGraph</title>
<polygon fill="white" stroke="none" points="-14,14 -14,-426 2038,-426 2038,14 -14,14"/>
<!-- github.com/chzyer/readline -->
<g id="node1" class="node">
<title>github.com/chzyer/readline</title>
<polygon fill="#d4d4d4" stroke="#a6a6a6" points="231,-36 12,-36 12,-40 0,-40 0,0 231,0 231,-36"/>
<polyline fill="none" stroke="#a6a6a6" points="0,-36 12,-36"/>
<text text-anchor="middle" x="115" y="-13" font-family="Courier New" font-size="14.00">github.com/chzyer/readline</text>
</g>
<!-- github.com/codemityio/auxilium -->
<g id="node2" class="node">
<title>github.com/codemityio/auxilium</title>
<polygon fill="#fcfcfc" stroke="#949494" points="486,-412 235,-412 235,-416 223,-416 223,-376 486,-376 486,-412"/>
<polyline fill="none" stroke="#949494" points="223,-412 235,-412"/>
<text text-anchor="middle" x="354" y="-389" font-family="Courier New" font-size="14.00">github.com/codemityio/auxilium</text>
</g>
<!-- github.com/codemityio/auxilium/cmd/select -->
<g id="node3" class="node">
<title>github.com/codemityio/auxilium/cmd/select</title>
<polygon fill="#fcfcfc" stroke="#949494" points="367,-318 25,-318 25,-322 13,-322 13,-282 367,-282 367,-318"/>
<polyline fill="none" stroke="#949494" points="13,-318 25,-318"/>
<text text-anchor="middle" x="190" y="-295" font-family="Courier New" font-size="14.00">github.com/codemityio/auxilium/cmd/select</text>
</g>
<!-- github.com/codemityio/auxilium&#45;&gt;github.com/codemityio/auxilium/cmd/select -->
<g id="edge1" class="edge">
<title>github.com/codemityio/auxilium&#45;&gt;github.com/codemityio/auxilium/cmd/select</title>
<path fill="none" stroke="#a8a8a8" d="M295,-376C295,-376 295,-326 295,-326"/>
<polygon fill="#a8a8a8" stroke="#a8a8a8" points="297,-326 295,-320 293,-326 297,-326"/>
</g>
<!-- github.com/codemityio/auxilium/cmd/validate -->
<g id="node4" class="node">
<title>github.com/codemityio/auxilium/cmd/validate</title>
<polygon fill="#fcfcfc" stroke="#949494" points="1475,-318 1116,-318 1116,-322 1104,-322 1104,-282 1475,-282 1475,-318"/>
<polyline fill="none" stroke="#949494" points="1104,-318 1116,-318"/>
<text text-anchor="middle" x="1289" y="-295" font-family="Courier New" font-size="14.00">github.com/codemityio/auxilium/cmd/validate</text>
</g>
<!-- github.com/codemityio/auxilium&#45;&gt;github.com/codemityio/auxilium/cmd/validate -->
<g id="edge2" class="edge">
<title>github.com/codemityio/auxilium&#45;&gt;github.com/codemityio/auxilium/cmd/validate</title>
<path fill="none" stroke="#a8a8a8" d="M486,-394C744,-394 1289,-394 1289,-394 1289,-394 1289,-326 1289,-326"/>
<polygon fill="#a8a8a8" stroke="#a8a8a8" points="1291,-326 1289,-320 1287,-326 1291,-326"/>
</g>
<!-- github.com/codemityio/auxilium/internal/app -->
<g id="node5" class="node">
<title>github.com/codemityio/auxilium/internal/app</title>
<polygon fill="#fcfcfc" stroke="#949494" points="1003,-318 718,-318 718,-322 706,-322 706,-282 1003,-282 1003,-318"/>
<polyline fill="none" stroke="#949494" points="706,-318 718,-318"/>
<text text-anchor="middle" x="854" y="-295" font-family="Courier New" font-size="14.00">github.com/codemityio/auxilium/app</text>
</g>
<!-- github.com/codemityio/auxilium&#45;&gt;github.com/codemityio/auxilium/internal/app -->
<g id="edge3" class="edge">
<title>github.com/codemityio/auxilium&#45;&gt;github.com/codemityio/auxilium/internal/app</title>
<path fill="none" stroke="#a8a8a8" d="M444,-376C444,-349 444,-300 444,-300 444,-300 698,-300 698,-300"/>
<polygon fill="#a8a8a8" stroke="#a8a8a8" points="698,-302 704,-300 698,-298 698,-302"/>
</g>
<!-- github.com/urfave/cli/v2 -->
<g id="node6" class="node">
<title>github.com/urfave/cli/v2</title>
<polygon fill="#d4d4d4" stroke="#a6a6a6" points="696,-224 494,-224 494,-228 482,-228 482,-188 696,-188 696,-224"/>
<polyline fill="none" stroke="#a6a6a6" points="482,-224 494,-224"/>
<text text-anchor="middle" x="589" y="-201" font-family="Courier New" font-size="14.00">github.com/urfave/cli/v2</text>
</g>
<!-- github.com/codemityio/auxilium&#45;&gt;github.com/urfave/cli/v2 -->
<g id="edge4" class="edge">
<title>github.com/codemityio/auxilium&#45;&gt;github.com/urfave/cli/v2</title>
<path fill="none" stroke="#a8a8a8" d="M406,-376C406,-327 406,-200 406,-200 406,-200 474,-200 474,-200"/>
<polygon fill="#a8a8a8" stroke="#a8a8a8" points="474,-202 480,-200 474,-198 474,-202"/>
</g>
<!-- github.com/codemityio/auxilium/cmd/select&#45;&gt;github.com/urfave/cli/v2 -->
<g id="edge6" class="edge">
<title>github.com/codemityio/auxilium/cmd/select&#45;&gt;github.com/urfave/cli/v2</title>
<path fill="none" stroke="#a8a8a8" d="M364,-282C364,-256 364,-212 364,-212 364,-212 474,-212 474,-212"/>
<polygon fill="#a8a8a8" stroke="#a8a8a8" points="474,-214 480,-212 474,-210 474,-214"/>
</g>
<!-- github.com/manifoldco/promptui -->
<g id="node7" class="node">
<title>github.com/manifoldco/promptui</title>
<polygon fill="#d4d4d4" stroke="#a6a6a6" points="360,-224 109,-224 109,-228 97,-228 97,-188 360,-188 360,-224"/>
<polyline fill="none" stroke="#a6a6a6" points="97,-224 109,-224"/>
<text text-anchor="middle" x="228" y="-201" font-family="Courier New" font-size="14.00">github.com/manifoldco/promptui</text>
</g>
<!-- github.com/codemityio/auxilium/cmd/select&#45;&gt;github.com/manifoldco/promptui -->
<g id="edge5" class="edge">
<title>github.com/codemityio/auxilium/cmd/select&#45;&gt;github.com/manifoldco/promptui</title>
<path fill="none" stroke="#a8a8a8" d="M228,-282C228,-282 228,-232 228,-232"/>
<polygon fill="#a8a8a8" stroke="#a8a8a8" points="230,-232 228,-226 226,-232 230,-232"/>
</g>
<!-- github.com/codemityio/auxilium/cmd/validate&#45;&gt;github.com/urfave/cli/v2 -->
<g id="edge8" class="edge">
<title>github.com/codemityio/auxilium/cmd/validate&#45;&gt;github.com/urfave/cli/v2</title>
<path fill="none" stroke="#a8a8a8" d="M1107,-282C1107,-269 1107,-253 1107,-253 1107,-253 591,-253 591,-253 591,-253 591,-232 591,-232"/>
<polygon fill="#a8a8a8" stroke="#a8a8a8" points="593,-232 591,-226 589,-232 593,-232"/>
</g>
<!-- github.com/ghodss/yaml -->
<g id="node8" class="node">
<title>github.com/ghodss/yaml</title>
<polygon fill="#d4d4d4" stroke="#a6a6a6" points="1006,-224 821,-224 821,-228 809,-228 809,-188 1006,-188 1006,-224"/>
<polyline fill="none" stroke="#a6a6a6" points="809,-224 821,-224"/>
<text text-anchor="middle" x="907" y="-201" font-family="Courier New" font-size="14.00">github.com/ghodss/yaml</text>
</g>
<!-- github.com/codemityio/auxilium/cmd/validate&#45;&gt;github.com/ghodss/yaml -->
<g id="edge7" class="edge">
<title>github.com/codemityio/auxilium/cmd/validate&#45;&gt;github.com/ghodss/yaml</title>
<path fill="none" stroke="#a8a8a8" d="M1110,-282C1110,-255 1110,-206 1110,-206 1110,-206 1014,-206 1014,-206"/>
<polygon fill="#a8a8a8" stroke="#a8a8a8" points="1014,-204 1008,-206 1014,-208 1014,-204"/>
</g>
<!-- github.com/xeipuuv/gojsonschema -->
<g id="node9" class="node">
<title>github.com/xeipuuv/gojsonschema</title>
<polygon fill="#d4d4d4" stroke="#a6a6a6" points="1384,-224 1124,-224 1124,-228 1112,-228 1112,-188 1384,-188 1384,-224"/>
<polyline fill="none" stroke="#a6a6a6" points="1112,-224 1124,-224"/>
<text text-anchor="middle" x="1248" y="-201" font-family="Courier New" font-size="14.00">github.com/xeipuuv/gojsonschema</text>
</g>
<!-- github.com/codemityio/auxilium/cmd/validate&#45;&gt;github.com/xeipuuv/gojsonschema -->
<g id="edge9" class="edge">
<title>github.com/codemityio/auxilium/cmd/validate&#45;&gt;github.com/xeipuuv/gojsonschema</title>
<path fill="none" stroke="#a8a8a8" d="M1248,-282C1248,-282 1248,-232 1248,-232"/>
<polygon fill="#a8a8a8" stroke="#a8a8a8" points="1250,-232 1248,-226 1246,-232 1250,-232"/>
</g>
<!-- github.com/codemityio/auxilium/internal/app&#45;&gt;github.com/urfave/cli/v2 -->
<g id="edge10" class="edge">
<title>github.com/codemityio/auxilium/internal/app&#45;&gt;github.com/urfave/cli/v2</title>
<path fill="none" stroke="#a8a8a8" d="M757,-282C757,-255 757,-206 757,-206 757,-206 704,-206 704,-206"/>
<polygon fill="#a8a8a8" stroke="#a8a8a8" points="704,-204 698,-206 704,-208 704,-204"/>
</g>
<!-- github.com/cpuguy83/go&#45;md2man/v2/md2man -->
<g id="node10" class="node">
<title>github.com/cpuguy83/go&#45;md2man/v2/md2man</title>
<polygon fill="#d4d4d4" stroke="#a6a6a6" points="1174,-130 848,-130 848,-134 836,-134 836,-94 1174,-94 1174,-130"/>
<polyline fill="none" stroke="#a6a6a6" points="836,-130 848,-130"/>
<text text-anchor="middle" x="1005" y="-107" font-family="Courier New" font-size="14.00">github.com/cpuguy83/go&#45;md2man/v2/md2man</text>
</g>
<!-- github.com/urfave/cli/v2&#45;&gt;github.com/cpuguy83/go&#45;md2man/v2/md2man -->
<g id="edge16" class="edge">
<title>github.com/urfave/cli/v2&#45;&gt;github.com/cpuguy83/go&#45;md2man/v2/md2man</title>
<path fill="none" stroke="#a8a8a8" d="M642,-188C642,-161 642,-112 642,-112 642,-112 828,-112 828,-112"/>
<polygon fill="#a8a8a8" stroke="#a8a8a8" points="828,-114 834,-112 828,-110 828,-114"/>
</g>
<!-- github.com/xrash/smetrics -->
<g id="node15" class="node">
<title>github.com/xrash/smetrics</title>
<polygon fill="#d4d4d4" stroke="#a6a6a6" points="1432,-36 1222,-36 1222,-40 1210,-40 1210,0 1432,0 1432,-36"/>
<polyline fill="none" stroke="#a6a6a6" points="1210,-36 1222,-36"/>
<text text-anchor="middle" x="1321" y="-13" font-family="Courier New" font-size="14.00">github.com/xrash/smetrics</text>
</g>
<!-- github.com/urfave/cli/v2&#45;&gt;github.com/xrash/smetrics -->
<g id="edge17" class="edge">
<title>github.com/urfave/cli/v2&#45;&gt;github.com/xrash/smetrics</title>
<path fill="none" stroke="#a8a8a8" d="M587,-188C587,-171 587,-149 587,-149 587,-149 1297,-149 1297,-149 1297,-149 1297,-44 1297,-44"/>
<polygon fill="#a8a8a8" stroke="#a8a8a8" points="1299,-44 1297,-38 1295,-44 1299,-44"/>
</g>
<!-- github.com/manifoldco/promptui&#45;&gt;github.com/chzyer/readline -->
<g id="edge13" class="edge">
<title>github.com/manifoldco/promptui&#45;&gt;github.com/chzyer/readline</title>
<path fill="none" stroke="#a8a8a8" d="M140,-188C140,-188 140,-44 140,-44"/>
<polygon fill="#a8a8a8" stroke="#a8a8a8" points="142,-44 140,-38 138,-44 142,-44"/>
</g>
<!-- github.com/manifoldco/promptui/list -->
<g id="node13" class="node">
<title>github.com/manifoldco/promptui/list</title>
<polygon fill="#d4d4d4" stroke="#a6a6a6" points="533,-130 240,-130 240,-134 228,-134 228,-94 533,-94 533,-130"/>
<polyline fill="none" stroke="#a6a6a6" points="228,-130 240,-130"/>
<text text-anchor="middle" x="380" y="-107" font-family="Courier New" font-size="14.00">github.com/manifoldco/promptui/list</text>
</g>
<!-- github.com/manifoldco/promptui&#45;&gt;github.com/manifoldco/promptui/list -->
<g id="edge14" class="edge">
<title>github.com/manifoldco/promptui&#45;&gt;github.com/manifoldco/promptui/list</title>
<path fill="none" stroke="#a8a8a8" d="M294,-188C294,-188 294,-138 294,-138"/>
<polygon fill="#a8a8a8" stroke="#a8a8a8" points="296,-138 294,-132 292,-138 296,-138"/>
</g>
<!-- github.com/manifoldco/promptui/screenbuf -->
<g id="node14" class="node">
<title>github.com/manifoldco/promptui/screenbuf</title>
<polygon fill="#d4d4d4" stroke="#a6a6a6" points="697,-36 363,-36 363,-40 351,-40 351,0 697,0 697,-36"/>
<polyline fill="none" stroke="#a6a6a6" points="351,-36 363,-36"/>
<text text-anchor="middle" x="524" y="-13" font-family="Courier New" font-size="14.00">github.com/manifoldco/promptui/screenbuf</text>
</g>
<!-- github.com/manifoldco/promptui&#45;&gt;github.com/manifoldco/promptui/screenbuf -->
<g id="edge15" class="edge">
<title>github.com/manifoldco/promptui&#45;&gt;github.com/manifoldco/promptui/screenbuf</title>
<path fill="none" stroke="#a8a8a8" d="M184,-188C184,-149 184,-65 184,-65 184,-65 442,-65 442,-65 442,-65 442,-44 442,-44"/>
<polygon fill="#a8a8a8" stroke="#a8a8a8" points="444,-44 442,-38 440,-44 444,-44"/>
</g>
<!-- gopkg.in/yaml.v2 -->
<g id="node12" class="node">
<title>gopkg.in/yaml.v2</title>
<polygon fill="#d4d4d4" stroke="#a6a6a6" points="1626,-130 1490,-130 1490,-134 1478,-134 1478,-94 1626,-94 1626,-130"/>
<polyline fill="none" stroke="#a6a6a6" points="1478,-130 1490,-130"/>
<text text-anchor="middle" x="1552" y="-107" font-family="Courier New" font-size="14.00">gopkg.in/yaml.v2</text>
</g>
<!-- github.com/ghodss/yaml&#45;&gt;gopkg.in/yaml.v2 -->
<g id="edge12" class="edge">
<title>github.com/ghodss/yaml&#45;&gt;gopkg.in/yaml.v2</title>
<path fill="none" stroke="#a8a8a8" d="M921,-188C921,-178 921,-169 921,-169 921,-169 1552,-169 1552,-169 1552,-169 1552,-138 1552,-138"/>
<polygon fill="#a8a8a8" stroke="#a8a8a8" points="1554,-138 1552,-132 1550,-138 1554,-138"/>
</g>
<!-- github.com/xeipuuv/gojsonreference -->
<g id="node17" class="node">
<title>github.com/xeipuuv/gojsonreference</title>
<polygon fill="#d4d4d4" stroke="#a6a6a6" points="2024,-130 1739,-130 1739,-134 1727,-134 1727,-94 2024,-94 2024,-130"/>
<polyline fill="none" stroke="#a6a6a6" points="1727,-130 1739,-130"/>
<text text-anchor="middle" x="1875" y="-107" font-family="Courier New" font-size="14.00">github.com/xeipuuv/gojsonreference</text>
</g>
<!-- github.com/xeipuuv/gojsonschema&#45;&gt;github.com/xeipuuv/gojsonreference -->
<g id="edge19" class="edge">
<title>github.com/xeipuuv/gojsonschema&#45;&gt;github.com/xeipuuv/gojsonreference</title>
<path fill="none" stroke="#a8a8a8" d="M1384,-206C1569,-206 1875,-206 1875,-206 1875,-206 1875,-138 1875,-138"/>
<polygon fill="#a8a8a8" stroke="#a8a8a8" points="1877,-138 1875,-132 1873,-138 1877,-138"/>
</g>
<!-- github.com/russross/blackfriday/v2 -->
<g id="node11" class="node">
<title>github.com/russross/blackfriday/v2</title>
<polygon fill="#d4d4d4" stroke="#a6a6a6" points="1105,-36 820,-36 820,-40 808,-40 808,0 1105,0 1105,-36"/>
<polyline fill="none" stroke="#a6a6a6" points="808,-36 820,-36"/>
<text text-anchor="middle" x="956" y="-13" font-family="Courier New" font-size="14.00">github.com/russross/blackfriday/v2</text>
</g>
<!-- github.com/cpuguy83/go&#45;md2man/v2/md2man&#45;&gt;github.com/russross/blackfriday/v2 -->
<g id="edge11" class="edge">
<title>github.com/cpuguy83/go&#45;md2man/v2/md2man&#45;&gt;github.com/russross/blackfriday/v2</title>
<path fill="none" stroke="#a8a8a8" d="M970,-94C970,-94 970,-44 970,-44"/>
<polygon fill="#a8a8a8" stroke="#a8a8a8" points="973,-44 970,-38 968,-44 973,-44"/>
</g>
<!-- github.com/xeipuuv/gojsonpointer -->
<g id="node16" class="node">
<title>github.com/xeipuuv/gojsonpointer</title>
<polygon fill="#d4d4d4" stroke="#a6a6a6" points="1914,-36 1646,-36 1646,-40 1634,-40 1634,0 1914,0 1914,-36"/>
<polyline fill="none" stroke="#a6a6a6" points="1634,-36 1646,-36"/>
<text text-anchor="middle" x="1774" y="-13" font-family="Courier New" font-size="14.00">github.com/xeipuuv/gojsonpointer</text>
</g>
<!-- github.com/xeipuuv/gojsonreference&#45;&gt;github.com/xeipuuv/gojsonpointer -->
<g id="edge18" class="edge">
<title>github.com/xeipuuv/gojsonreference&#45;&gt;github.com/xeipuuv/gojsonpointer</title>
<path fill="none" stroke="#a8a8a8" d="M1821,-94C1821,-94 1821,-44 1821,-44"/>
<polygon fill="#a8a8a8" stroke="#a8a8a8" points="1823,-44 1821,-38 1819,-44 1823,-44"/>
</g>
</g>
</svg>
